<svg xmlns="http://www.w3.org/2000/svg" viewBox="0 0 24 24" focusable="false" aria-hidden="true" class="wink-icon iconPositioning-2AitU icon-3YgtG"><path fill-rule="evenodd" clip-rule="evenodd" d="M8 1l1.106 2.211a1.236 1.236 0 11-2.212 0L8 1zm4 0l1.106 2.211a1.236 1.236 0 11-2.212 0L12 1zM7 9V6h2v3h2V6h2v3h2V6h2v3h3.75A2.25 2.25 0 0123 11.25V14a3.99 3.99 0 01-1 2.646V22a1 1 0 01-1 1H3a1 1 0 01-1-1v-5.354A3.985 3.985 0 011 14v-2.75A2.25 2.25 0 013.25 9H7zM4 21h16v-3.126A4.01 4.01 0 0115.535 16h-.07A3.998 3.998 0 0112 18a3.998 3.998 0 01-3.465-2h-.07A3.998 3.998 0 014 17.874V21zM17.106 3.211L16 1l-1.106 2.211a1.236 1.236 0 102.212 0zM7 14a2 2 0 11-4 0v-2.75a.25.25 0 01.25-.25h17.5a.25.25 0 01.25.25V14a2 2 0 11-4 0h-3a2 2 0 11-4 0H7z"></path></svg>