<svg xmlns="http://www.w3.org/2000/svg" viewBox="0 0 24 24" focusable="false" aria-hidden="true" role="presentation" class="wink-icon icon-ECm3x"><path d="M13 2v2c0 1.316.323 2.097.738 2.65.443.591 1.045 1.004 1.817 1.518l.05.033c.719.48 1.591 1.06 2.258 1.949.71.947 1.137 2.166 1.137 3.85v2h3l-4 6-4-6h3v-2c0-1.316-.323-2.097-.738-2.65-.443-.591-1.045-1.004-1.817-1.518l-.05-.033c-.719-.48-1.591-1.06-2.258-1.949C11.427 6.903 11 5.684 11 4V2h2zM9.685 9.291c.184-.173.372-.353.562-.544L8.832 7.332c-.167.169-.34.335-.517.502-.121.114-.246.228-.372.345C6.585 9.43 5 10.89 5 13.667V16H2l4 6 4-6H7v-2.333c0-1.873.95-2.758 2.347-4.06l.338-.316z"></path></svg>