<svg xmlns="http://www.w3.org/2000/svg" viewBox="0 0 24 24" focusable="false" aria-hidden="true" class="wink-icon iconPositioning-2AitU icon-3YgtG"><g clip-path="url(#svg__d4767__clip0)"><path fill-rule="evenodd" clip-rule="evenodd" d="M15 8.5c0 3.13-1.547 5.814-3.94 6.937.219.734 1.01 1.027 1.897 1.356C14.359 17.313 16 17.922 16 20.5v2H1v-2c0-2.578 1.641-3.187 3.043-3.707.887-.329 1.678-.622 1.897-1.356C3.547 14.314 2 11.63 2 8.5 2 4.358 4.364 1 8.5 1S15 4.358 15 8.5zM8.5 14c2.39 0 4.5-2.14 4.5-5.5 0-1.71-.489-3.108-1.248-4.039C11.027 3.573 9.972 3 8.5 3c-1.473 0-2.527.573-3.252 1.461C4.488 5.391 4 6.791 4 8.5 4 11.86 6.11 14 8.5 14z"></path><path d="M21 4v3h3v2h-3v3h-2V9h-3V7h3V4h2z"></path></g><defs><clipPath id="svg__d4767__clip0"><path d="M0 0h24v24H0z"></path></clipPath></defs></svg>